<svg id="圖層_1" data-name="圖層 1" xmlns="http://www.w3.org/2000/svg" viewBox="0 0 69.33 72.09"><defs><style>.cls-1,.cls-4,.cls-5{fill:none;}.cls-2{fill:#84a295;}.cls-3{fill:#fff;}.cls-4,.cls-5{stroke:#fff;stroke-linecap:round;stroke-linejoin:round;}.cls-4{stroke-width:0.94px;}.cls-5{stroke-width:1.29px;}.cls-6{fill:#b7cdc2;}</style></defs><title>avatar</title><rect class="cls-1" x="-0.78" y="2.76" width="69.33" height="69.33" rx="12" ry="12"/><circle class="cls-2" cx="14.9" cy="27.97" r="8.2" transform="translate(-10.31 8.77) rotate(-24.67)"/><circle class="cls-3" cx="11.81" cy="25.26" r="1.05" transform="translate(-14.1 35.54) rotate(-86.6)"/><circle class="cls-3" cx="18.38" cy="25.91" r="1.05" transform="translate(-9.23 41.62) rotate(-84.31)"/><circle class="cls-4" cx="14.96" cy="27.84" r="1.13" transform="translate(-16.61 29.22) rotate(-64.25)"/><circle class="cls-2" cx="37.38" cy="22.69" r="11.2" transform="translate(-6.16 18.64) rotate(-25.94)"/><circle class="cls-3" cx="33.49" cy="19.08" r="1.44" transform="translate(13.18 51.84) rotate(-87.88)"/><circle class="cls-3" cx="42.07" cy="19.77" r="1.44" transform="translate(19.11 60.19) rotate(-85.58)"/><line class="cls-5" x1="35.77" y1="22.52" x2="39.31" y2="22.8"/><path class="cls-6" d="M58.94,26.39c0-2.72.42-5.14,2.35-7.18A41.68,41.68,0,0,1,64.75,16c-.39-.42-4-4.44-4.17-4.11C56.64,22.2,45.1,24.66,37.74,31.75c-4.23,4.07-4.51,6.81-10.85,6.94A16.64,16.64,0,0,0,12,49.39c-1.8,5-1.35,11.13-5.22,14.75,1-1,8.34,1.87,9.72,2.17a33.65,33.65,0,0,0,11.26.78C32.87,66.46,38,64,40.82,59.62,42.37,57.25,43,53.88,45,51.91c1.72-1.63,4.36-2.6,6.31-4a17.77,17.77,0,0,0,7.4-12.3A91.66,91.66,0,0,0,58.94,26.39Z"/><path class="cls-2" d="M53.57,31.85a1.35,1.35,0,0,1,.52-.62,1.52,1.52,0,0,1,2,.62,3.38,3.38,0,0,1,.32,2.21A13,13,0,0,1,51,42.59c-1.91,1.44-3.09,2.62-5.69,2.33a3.79,3.79,0,0,1-2.17-.77,1.53,1.53,0,0,1-.26-2.08c.51-.54,1.37-.45,2.11-.43a7.77,7.77,0,0,0,5.7-2.58,10.4,10.4,0,0,0,2.55-5.81A4.85,4.85,0,0,1,53.57,31.85Z"/><path class="cls-2" d="M35.71,51.62c.35-.55.77-1.17,1.42-1.26a1.42,1.42,0,0,1,1.39.89A3.11,3.11,0,0,1,38.63,53a10.08,10.08,0,0,1-3.7,6,18.31,18.31,0,0,1-6.45,3.19c-2.36.7-5.53,1.17-7.64-.46s-1.78-2.6.24-3.33,4.82-.06,7.05-.71A14,14,0,0,0,35.71,51.62Z"/></svg>