<svg id="圖層_1" data-name="圖層 1" xmlns="http://www.w3.org/2000/svg" xmlns:xlink="http://www.w3.org/1999/xlink" viewBox="0 0 69.33 72.09"><defs><style>.cls-1,.cls-5{fill:none;}.cls-2{clip-path:url(#clip-path);}.cls-3{fill:#84a295;}.cls-4{fill:#fff;}.cls-5{stroke:#fff;stroke-linecap:round;stroke-linejoin:round;stroke-width:2.28px;}.cls-6{fill:#b7cdc2;}</style><clipPath id="clip-path"><rect class="cls-1" x="0.26" y="2.76" width="69.33" height="69.33" rx="12" ry="12"/></clipPath></defs><title>avatar</title><g class="cls-2"><rect class="cls-1" x="0.26" y="2.76" width="69.33" height="69.33" rx="12" ry="12"/><circle class="cls-3" cx="28.73" cy="31.07" r="19.78" transform="translate(-12.08 19.88) rotate(-31.91)"/><circle class="cls-4" cx="21.49" cy="25.52" r="2.55" transform="translate(-11.87 24.91) rotate(-48.85)"/><circle class="cls-4" cx="36.42" cy="25.09" r="2.55" transform="translate(-0.67 1) rotate(-1.55)"/><line class="cls-5" x1="25.86" y1="31.07" x2="32.12" y2="30.9"/><path class="cls-6" d="M61,26.69c-.7-3.52-.91-6.75,1-9.93a55,55,0,0,1,3.55-5.17C64.92,11.17,59.07,7,59,7.47,56.84,21.93,42.65,28.36,35.15,39.58c-4.31,6.44-3.9,10.06-12,12a22,22,0,0,0-16.23,18C6,76.54,8.27,84.35,4.31,90.11c1-1.52,11.28.06,13.15.06A44.43,44.43,0,0,0,32.19,88C38.66,85.73,44.55,81.08,47,74.68c1.33-3.5,1.15-8,3.28-11.15,1.76-2.59,4.89-4.58,7-6.88a23.46,23.46,0,0,0,6.08-18C63,34.63,61.78,30.7,61,26.69Z"/><path class="cls-3" d="M55.6,35.25a1.78,1.78,0,0,1,.5-.94,2,2,0,0,1,2.7.25,4.47,4.47,0,0,1,1,2.76c.43,4.58-1.56,9.09-4.49,12.5-2.05,2.39-3.24,4.25-6.69,4.61a5,5,0,0,1-3-.38,2,2,0,0,1-.92-2.62c.51-.84,1.64-1,2.59-1.15A10.26,10.26,0,0,0,54,45.35a13.74,13.74,0,0,0,1.65-8.21A6.4,6.4,0,0,1,55.6,35.25Z"/><path class="cls-3" d="M38.13,65.79c.3-.81.66-1.73,1.47-2a1.87,1.87,0,0,1,2,.76,4.1,4.1,0,0,1,.64,2.21,13.32,13.32,0,0,1-3.08,8.83,24.18,24.18,0,0,1-7.42,5.93c-2.85,1.57-6.8,3.06-10,1.56s-3-2.85-.62-4.36,6.2-1.43,8.9-2.9C34,73.7,36.6,69.88,38.13,65.79Z"/></g></svg>